Coordinates
version=1
nRows=24
nColumns=24
inDegrees=yes

Units are S.I. units (second, meters, Newtons, ...)
Angles are in degrees.

endheader
time	pelvis_tilt	pelvis_list	pelvis_rotation	pelvis_tx	pelvis_ty	pelvis_tz	hip_flexion_r	hip_adduction_r	hip_rotation_r	knee_angle_r	ankle_angle_r	subtalar_angle_r	mtp_angle_r	hip_flexion_l	hip_adduction_l	hip_rotation_l	knee_angle_l	ankle_angle_l	subtalar_angle_l	mtp_angle_l	lumbar_extension	lumbar_bending	lumbar_rotation
      3.29000000	    -12.50458209	     -2.72179854	      6.07936391	     -1.87696313	     -0.04422715	      0.48132433	     36.46123268	     -0.40221706	     -4.78934558	     -9.78217979	     -9.47173235	      9.31515724	     17.82779271	     -3.40731743	      1.56043166	     14.52802107	    -18.25491883	      8.01290098	      1.34895270	      2.49551268	      8.25027706	      2.04887491	     -5.92746855
      3.29500000	    -12.67190175	     -3.06723366	      6.00260517	     -1.86892426	     -0.04499399	      0.48202717	     36.65809500	      0.09825609	     -4.24212977	    -10.44573443	    -10.48722072	      8.29555651	     17.90267893	     -3.15428428	      1.13065055	     14.12983047	    -19.21850304	      7.64036015	      2.12049994	      3.04585781	      8.55728707	      2.42059236	     -5.91598860
      3.30000000	    -12.82602690	     -3.41418709	      5.86986598	     -1.86091803	     -0.04568402	      0.48290110	     36.86870727	      0.65203238	     -3.61190779	    -11.16215231	    -11.49794494	      7.10860139	     17.97353804	     -2.86732854	      0.68057251	     13.58850537	    -20.24425074	      7.17724294	      2.97179388	      3.74396529	      8.83618067	      2.79436662	     -5.85622184
      3.30500000	    -12.99441030	     -3.80133451	      5.72043355	     -1.85291009	     -0.04624528	      0.48378385	     37.09744133	      1.25592550	     -2.95775742	    -11.89246697	    -12.46050707	      5.87894096	     17.91898139	     -2.51810562	      0.17892361	     13.02364821	    -21.32655136	      6.60807879	      3.88424886	      4.53161481	      9.13394148	      3.21613811	     -5.77811944
      3.31000000	    -13.16419119	     -4.20721767	      5.53239534	     -1.84491743	     -0.04668392	      0.48474539	     37.34256541	      1.91305822	     -2.26660364	    -12.66261363	    -13.28232515	      4.61261394	     17.71289293	     -2.11923185	     -0.35838985	     12.40113513	    -22.46797403	      5.92742594	      4.87498991	      5.44789998	      9.42616361	      3.66231952	     -5.66951428
      3.31500000	    -13.26622016	     -4.62527836	      5.28060012	     -1.83689302	     -0.04691226	      0.48579095	     37.52414760	      2.64545851	     -1.54574872	    -13.47756564	    -13.90071820	      3.33530336	     17.26232917	     -1.78668366	     -0.93336272	     11.72478639	    -23.54980552	      4.86966171	      5.68012206	      7.05572563	      9.63952644	      4.14511107	     -5.47581308
      3.32000000	    -13.44921602	     -5.02460133	      5.08882416	     -1.82899130	     -0.04712152	      0.48681489	     37.80468476	      3.32484900	     -0.85880472	    -14.34481477	    -14.27892662	      2.11961492	     16.64868251	     -1.24755686	     -1.49483240	     11.06044899	    -24.84690103	      3.98048432	      6.88502908	      8.11317738	      9.92530030	      4.57930337	     -5.39499065
      3.32500000	    -13.54033660	     -5.46290932	      4.83601010	     -1.82093442	     -0.04710934	      0.48785333	     37.98117598	      4.09943113	     -0.22602100	    -15.28169349	    -14.26499925	      1.13708655	     15.36033503	     -0.82157431	     -2.12570087	     10.36430462	    -26.02282077	      2.60228331	      7.79599635	     10.16215632	     10.12729652	      5.08726783	     -5.23066766
      3.33000000	    -13.68697872	     -5.83480857	      4.61545556	     -1.81301368	     -0.04705985	      0.48890449	     38.19768982	      4.80902764	      0.45193882	    -16.17750182	    -14.32432792	     -0.08944845	     14.31985791	     -0.23899951	     -2.67992826	      9.73183926	    -27.37813374	      1.31009243	      8.93223556	     11.51527008	     10.36359791	      5.50489229	     -5.10496984
      3.33500000	    -13.72782145	     -6.23366064	      4.35691555	     -1.80493080	     -0.04681794	      0.48989446	     38.28145758	      5.56726863	      1.00132738	    -17.12748984	    -13.88668034	     -0.78779835	     12.66558166	      0.22456537	     -3.29451865	      9.05695939	    -28.61694065	     -0.42332463	      9.88501102	     13.87263465	     10.50265025	      5.98305869	     -4.92664756
      3.34000000	    -13.74962107	     -6.54887452	      4.15236911	     -1.79703233	     -0.04652028	      0.49086939	     38.32753096	      6.23179393	      1.54689284	    -18.05538602	    -13.40546552	     -1.56480149	     11.08788001	      0.74915591	     -3.81571083	      8.50855647	    -29.95059706	     -2.21174970	     10.91489666	     16.03930766	     10.58478961	      6.35802789	     -4.79644458
      3.34500000	    -13.76342719	     -6.88510609	      3.93999423	     -1.78903415	     -0.04615142	      0.49176488	     38.30437185	      6.91447822	      2.04696389	    -18.89093994	    -12.88480288	     -2.25926945	      9.54815170	      1.30065004	     -4.35727579	      7.98555600	    -31.29140122	     -4.18586655	     11.83235246	     18.25749890	     10.67530485	      6.76515843	     -4.67236599
      3.35000000	    -13.74036090	     -7.17669253	      3.75529192	     -1.78111102	     -0.04571061	      0.49260728	     38.20351167	      7.53710098	      2.48409492	    -19.66724454	    -12.30035385	     -2.87250850	      8.05468219	      1.86094504	     -4.84648794	      7.54968417	    -32.64339042	     -6.29837062	     12.70423786	     20.50725185	     10.71237855	      7.12159996	     -4.56152369
      3.35500000	    -13.71034714	     -7.45939170	      3.60070697	     -1.77328930	     -0.04523807	      0.49337389	     38.04366686	      8.12794316	      2.89466666	    -20.33425393	    -11.80991489	     -3.54253261	      6.73393725	      2.47810426	     -5.31075713	      7.19320637	    -34.03999544	     -8.48493309	     13.45358924	     22.59601351	     10.72939982	      7.46461311	     -4.49243469
      3.36000000	    -13.64587599	     -7.74044241	      3.43611733	     -1.76535491	     -0.04472645	      0.49407216	     37.79480918	      8.70026221	      3.15866841	    -20.92763221	    -11.15764654	     -3.97858514	      5.48919368	      3.06171619	     -5.77438519	      6.84075679	    -35.38358275	    -10.76584137	     14.09524745	     24.72376771	     10.73102511	      7.81639978	     -4.37895996
      3.36500000	    -13.56188180	     -7.99966023	      3.29856107	     -1.75760921	     -0.04420612	      0.49471219	     37.48624445	      9.22344069	      3.38637466	    -21.42590775	    -10.56259457	     -4.38676829	      4.44056657	      3.68488177	     -6.20023178	      6.55314467	    -36.77340239	    -12.97465390	     14.65483037	     26.59211212	     10.68507492	      8.13972020	     -4.27948945
      3.37000000	    -13.49859401	     -8.26187201	      3.17458726	     -1.75004474	     -0.04375737	      0.49538966	     37.16685341	      9.73195324	      3.56917661	    -21.82006452	    -10.11956053	     -4.89537245	      3.69431085	      4.39878722	     -6.63016948	      6.28341157	    -38.24921039	    -14.94213719	     15.22876313	     28.03892122	     10.63988290	      8.44775278	     -4.19989047
      3.37500000	    -13.39778508	     -8.54789779	      3.05892614	     -1.74231979	     -0.04322915	      0.49590115	     36.73130624	     10.22587655	      3.64011816	    -22.09753258	     -9.52597607	     -5.14663850	      3.00590529	      5.05406275	     -7.06746989	      6.04156997	    -39.64230228	    -16.92202392	     15.44591966	     29.46739806	     10.59350053	      8.79825110	     -4.07232609
      3.38000000	    -13.32687470	     -8.84049011	      2.98692644	     -1.73486272	     -0.04280000	      0.49646442	     36.31086683	     10.69776616	      3.66571859	    -22.28160071	     -9.13993007	     -5.59781159	      2.60637791	      5.83484194	     -7.51326232	      5.81780202	    -41.17749416	    -18.47701426	     15.62096667	     30.23355852	     10.54937400	      9.12107909	     -4.03722139
      3.38500000	    -13.23916328	     -9.14230638	      2.90917962	     -1.72738926	     -0.04234225	      0.49699497	     35.82197537	     11.16402644	      3.65866668	    -22.37842900	     -8.67912924	     -5.87116381	      2.29142561	      6.59641136	     -7.96435074	      5.60698598	    -42.67494244	    -19.83972111	     15.54205601	     30.94843808	     10.49930672	      9.45755970	     -3.93821784
      3.39000000	    -13.14378266	     -9.45325576	      2.86489343	     -1.72003773	     -0.04189146	      0.49749877	     35.30089729	     11.60710471	      3.56150133	    -22.39159581	     -8.30981217	     -6.17325924	      2.22385702	      7.40110753	     -8.41850599	      5.42021931	    -44.24843038	    -20.79169864	     15.29647600	     31.05897817	     10.43629758	      9.78594660	     -3.83543142
      3.39500000	    -13.05713156	     -9.77212246	      2.82374353	     -1.71275424	     -0.04146110	      0.49806486	     34.76219734	     12.05713733	      3.48818598	    -22.34925700	     -7.94476562	     -6.44846425	      2.18462808	      8.23707497	     -8.88834624	      5.23449981	    -45.81564978	    -21.45514518	     14.81477816	     31.10723520	     10.38197091	     10.11086744	     -3.73579281
      3.40000000	    -12.97766964	    -10.08239697	      2.80345865	     -1.70548900	     -0.04100323	      0.49865349	     34.20381824	     12.48737032	      3.40084711	    -22.25526707	     -7.58673789	     -6.71945428	      2.15212112	      9.10169256	     -9.34994409	      5.06187919	    -47.35958782	    -21.91195371	     14.05822173	     31.00022130	     10.34611219	     10.40986249	     -3.65483496
      3.40500000	    -12.90153720	    -10.37642302	      2.80566031	     -1.69830397	     -0.04051134	      0.49924435	     33.63481086	     12.89032970	      3.32578898	    -22.13088970	     -7.24305078	     -6.96267075	      2.12623856	      9.99759072	     -9.78603123	      4.91305259	    -48.88807681	    -22.16261672	     13.02179936	     30.68142570	     10.31051286	     10.67471435	     -3.58466845
